<svg xmlns="http://www.w3.org/2000/svg" width="63.325" height="60.8" viewBox="0 0 63.325 60.8">
  <defs>
    <style>
      .cls-1 {
        fill: #fff;
      }
    </style>
  </defs>
  <path id="패스_389" data-name="패스 389" class="cls-1" d="M44.852-29.6c-.918,4.32-4.529,7.76-8.849,7.76-3.04,0-4.416-2.56-3.77-5.6.918-4.32,4.151-8.24,8.311-8.24C43.9-35.68,45.617-33.2,44.852-29.6ZM50.7-43.2,49.12-39.52c-1.269-3.44-4.054-4.64-7.654-4.64-8.56,0-15.911,8.24-17.816,17.2-1.87,8.8,2.949,13.6,8.229,13.6a10.416,10.416,0,0,0,8.079-3.76h.16c.564,2.24,1.921,3.76,6.161,3.76,4.96,0,19.606-3.04,23.483-21.28,3.214-15.12-8.123-24.64-23.8-24.64-18.48,0-34.549,13.12-38.239,30.48C3.964-11.12,14.877,1.52,33.517,1.52c10.16,0,19.543-3.12,27.7-12.88h-9.68a30.99,30.99,0,0,1-15.575,4.4c-12.4,0-19.878-8.48-17.038-21.84,2.653-12.48,12.916-22,25-22,10.96,0,18.092,6.72,15.745,17.76-.986,4.64-3.877,11.84-8.517,11.84A1.4,1.4,0,0,1,49.6-22.96c.136-.64.631-1.84,1.012-2.88l6.81-17.36Z" transform="translate(-6.984 59.28)"/>
</svg>
