<svg xmlns="http://www.w3.org/2000/svg" width="93" height="93" viewBox="0 0 93 93">
  <path id="패스_161" data-name="패스 161" d="M2033.709,2143.982v-8.964l-23.311-.91a23.66,23.66,0,0,0-2.979-7.192l15.839-17.127-6.338-6.338-17.127,15.839a23.668,23.668,0,0,0-7.192-2.979l-.91-23.311h-8.964l-.911,23.311a23.676,23.676,0,0,0-7.192,2.979L1957.5,2103.45l-6.339,6.338L1967,2126.916a23.662,23.662,0,0,0-2.979,7.192l-23.311.91v8.964l23.311.91a23.665,23.665,0,0,0,2.979,7.192l-15.839,17.127,6.339,6.338,17.127-15.839a23.664,23.664,0,0,0,7.192,2.979l.911,23.311h8.964l.91-23.311a23.656,23.656,0,0,0,7.192-2.979l17.127,15.839,6.338-6.338-15.839-17.127a23.662,23.662,0,0,0,2.979-7.192Zm-46.5,6.163a10.645,10.645,0,1,1,10.645-10.645A10.645,10.645,0,0,1,1987.209,2150.145Z" transform="translate(-1940.709 -2093)"/>
</svg>
