<svg xmlns="http://www.w3.org/2000/svg" width="65.667" height="50" viewBox="0 0 65.667 50">
  <defs>
    <style>
      .cls-1, .cls-2 {
        fill: none;
      }

      .cls-2 {
        stroke: #000;
        stroke-width: 3px;
      }
    </style>
  </defs>
  <g id="심볼_168_2" data-name="심볼 168 – 2" transform="translate(-176.5 -304.5)">
    <rect id="사각형_549" data-name="사각형 549" class="cls-1" width="16" height="16" transform="translate(178 306)"/>
    <path id="패스_148" data-name="패스 148" class="cls-2" d="M58.489,0A3.989,3.989,0,0,1,61.1,1.044c1.044,1.044,1.567,1.567,1.567,3.133V43.344a3.989,3.989,0,0,1-1.044,2.611A5.6,5.6,0,0,1,58.489,47H4.178a5.6,5.6,0,0,1-3.133-1.044A5.6,5.6,0,0,1,0,42.822V4.178A3.989,3.989,0,0,1,1.044,1.567C2.089.522,2.611,0,4.178,0ZM17.756,9.4a5.93,5.93,0,0,0-4.178-1.567A5.93,5.93,0,0,0,9.4,9.4a5.93,5.93,0,0,0-1.567,4.178A5.93,5.93,0,0,0,9.4,17.756a5.93,5.93,0,0,0,4.178,1.567,5.93,5.93,0,0,0,4.178-1.567,5.93,5.93,0,0,0,1.567-4.178A5.93,5.93,0,0,0,17.756,9.4ZM54.833,39.167l-15.667-23.5-14.1,18.278-9.4-6.789L7.833,39.167Z" transform="translate(178 306)"/>
  </g>
</svg>
