<svg xmlns="http://www.w3.org/2000/svg" xmlns:xlink="http://www.w3.org/1999/xlink" width="465" height="487.667" viewBox="0 0 465 487.667">
  <defs>
    <style>
      .cls-1, .cls-3 {
        fill: none;
      }

      .cls-2, .cls-5 {
        fill: #fff;
      }

      .cls-2 {
        font-size: 80px;
        font-family: SpoqaHanSans-Bold, SpoqaHanSans;
        font-weight: 700;
      }

      .cls-3 {
        stroke: #fff;
        stroke-width: 15px;
      }

      .cls-4 {
        clip-path: url(#clip-path);
      }

      .cls-6 {
        stroke: none;
      }
    </style>
    <clipPath id="clip-path">
      <rect class="cls-1" width="164.287" height="74.902"/>
    </clipPath>
  </defs>
  <g id="그룹_400" data-name="그룹 400" transform="translate(-308 -716)">
    <rect id="사각형_13" data-name="사각형 13" width="465" height="487.667" transform="translate(308 716)"/>
    <text id="삭제완료_" data-name="삭제완료!" class="cls-2" transform="translate(541 1134)"><tspan x="-162" y="0">삭제완료!</tspan></text>
    <g id="그룹_111" data-name="그룹 111" transform="translate(268 -774.347)">
      <g id="타원_1" data-name="타원 1" class="cls-3" transform="translate(150 1549.316)">
        <circle class="cls-6" cx="122.328" cy="122.328" r="122.328"/>
        <circle class="cls-1" cx="122.328" cy="122.328" r="114.828"/>
      </g>
      <g id="반복_그리드_11" data-name="반복 그리드 11" class="cls-4" transform="translate(191 1638.598)">
        <g transform="translate(-196.194 -1638.598)">
          <path id="패스_410" data-name="패스 410" class="cls-5" d="M4.907-65.381Q2.612-31.1-5.688-12.793-10.522-2.2-19.214-2.2q-7.471,0-11.475-7.568Q-34.5-16.895-34.5-29.687a52.4,52.4,0,0,1,3.271-18.7,36.53,36.53,0,0,1,7.422-12.3A33.39,33.39,0,0,1-11.548-68.75,38.76,38.76,0,0,1,2.515-71.387q17.432,0,25.391,10.693,6.885,9.375,6.885,27.2,0,14.7-8.008,24.268Q18.726.342,3.394,3.516L-.073-2.49Q27.319-7.715,27.319-35.4q0-15.723-7.373-23.584A20.063,20.063,0,0,0,4.907-65.381Zm-7.52.781a21.966,21.966,0,0,0-9.229,2.881,31.848,31.848,0,0,0-7.568,6.641q-8.2,9.375-8.2,25.586,0,9.619,2.93,15.186,2.344,4.395,5.371,4.395a5.859,5.859,0,0,0,4.443-1.855,18.173,18.173,0,0,0,3.174-5.42Q-4.077-35.156-2.612-64.6Z" transform="translate(230.691 1709.985)"/>
        </g>
        <g transform="translate(-106.194 -1638.598)">
          <path id="패스_410-2" data-name="패스 410" class="cls-5" d="M4.907-65.381Q2.612-31.1-5.688-12.793-10.522-2.2-19.214-2.2q-7.471,0-11.475-7.568Q-34.5-16.895-34.5-29.687a52.4,52.4,0,0,1,3.271-18.7,36.53,36.53,0,0,1,7.422-12.3A33.39,33.39,0,0,1-11.548-68.75,38.76,38.76,0,0,1,2.515-71.387q17.432,0,25.391,10.693,6.885,9.375,6.885,27.2,0,14.7-8.008,24.268Q18.726.342,3.394,3.516L-.073-2.49Q27.319-7.715,27.319-35.4q0-15.723-7.373-23.584A20.063,20.063,0,0,0,4.907-65.381Zm-7.52.781a21.966,21.966,0,0,0-9.229,2.881,31.848,31.848,0,0,0-7.568,6.641q-8.2,9.375-8.2,25.586,0,9.619,2.93,15.186,2.344,4.395,5.371,4.395a5.859,5.859,0,0,0,4.443-1.855,18.173,18.173,0,0,0,3.174-5.42Q-4.077-35.156-2.612-64.6Z" transform="translate(230.691 1709.985)"/>
        </g>
      </g>
    </g>
  </g>
</svg>
