<svg xmlns="http://www.w3.org/2000/svg" width="34.1" height="33.596" viewBox="0 0 34.1 33.596">
  <defs>
    <style>
      .cls-1, .cls-2 {
        fill: none;
      }

      .cls-1 {
        stroke: #000;
        stroke-width: 3px;
      }

      .cls-3, .cls-4 {
        stroke: none;
      }
    </style>
  </defs>
  <g id="그룹_420" data-name="그룹 420" transform="translate(-3662.5 -7302)">
    <path id="패스_625" data-name="패스 625" class="cls-1" d="M0,0H34.1" transform="translate(3662.5 7306.625)"/>
    <g id="패스_624" data-name="패스 624" class="cls-2" transform="translate(3665.178 7305.895)">
      <path class="cls-3" d="M0,0H28.257L27.149,29.7H1.108Z"/>
      <path class="cls-4" d="M 3.114006042480469 2.999996185302734 L 3.998283386230469 26.701416015625 L 24.25885009765625 26.701416015625 L 25.14312744140625 2.999996185302734 L 3.114006042480469 2.999996185302734 M -3.814697265625e-06 -3.814697265625e-06 L 28.25713729858398 -3.814697265625e-06 L 27.14900588989258 29.701416015625 L 1.108127593994141 29.701416015625 L -3.814697265625e-06 -3.814697265625e-06 Z"/>
    </g>
    <g id="패스_626" data-name="패스 626" class="cls-2" transform="translate(3673.664 7302)">
      <path class="cls-3" d="M0,0H11.2V5.356H0Z"/>
      <path class="cls-4" d="M -3.814697265625e-06 -3.814697265625e-06 L 11.19889640808105 -3.814697265625e-06 L 11.19889640808105 5.355996131896973 L -3.814697265625e-06 5.355996131896973 L -3.814697265625e-06 -3.814697265625e-06 Z"/>
    </g>
    <path id="패스_627" data-name="패스 627" class="cls-1" d="M0,0V17.529" transform="translate(3675.249 7311.981)"/>
    <path id="패스_628" data-name="패스 628" class="cls-1" d="M0,0V17.529" transform="translate(3683.31 7311.981)"/>
  </g>
</svg>
