<svg id="그룹_133" data-name="그룹 133" xmlns="http://www.w3.org/2000/svg" width="48.769" height="48.769" viewBox="0 0 48.769 48.769">
  <defs>
    <style>
      .cls-1, .cls-3 {
        fill: none;
      }

      .cls-1 {
        stroke: #000;
        stroke-width: 2px;
      }

      .cls-2 {
        stroke: none;
      }
    </style>
  </defs>
  <g id="타원_1" data-name="타원 1" class="cls-1">
    <circle class="cls-2" cx="24.384" cy="24.384" r="24.384"/>
    <circle class="cls-3" cx="24.384" cy="24.384" r="23.384"/>
  </g>
  <path id="패스_166" data-name="패스 166" d="M216.6,147.988q-.587,8.761-2.708,13.441-1.236,2.708-3.457,2.708A3.193,3.193,0,0,1,207.5,162.2a10.944,10.944,0,0,1-.973-5.092,13.392,13.392,0,0,1,.836-4.78,9.337,9.337,0,0,1,1.9-3.145,8.535,8.535,0,0,1,3.132-2.059,9.907,9.907,0,0,1,3.594-.674q4.455,0,6.49,2.733,1.76,2.4,1.76,6.951a9.337,9.337,0,0,1-2.047,6.2,10.219,10.219,0,0,1-5.978,3.257l-.886-1.535q7-1.335,7-8.411,0-4.019-1.884-6.028A5.128,5.128,0,0,0,216.6,147.988Zm-1.922.2a5.614,5.614,0,0,0-2.359.736,8.14,8.14,0,0,0-1.934,1.7,9.588,9.588,0,0,0-2.1,6.54,8.4,8.4,0,0,0,.749,3.881q.6,1.123,1.373,1.123a1.5,1.5,0,0,0,1.136-.474,4.645,4.645,0,0,0,.811-1.385A36.182,36.182,0,0,0,214.676,148.188Zm22.776-.2q-.587,8.761-2.708,13.441-1.236,2.708-3.457,2.708a3.193,3.193,0,0,1-2.933-1.934,10.944,10.944,0,0,1-.973-5.092,13.392,13.392,0,0,1,.836-4.78,9.337,9.337,0,0,1,1.9-3.145,8.534,8.534,0,0,1,3.132-2.059,9.907,9.907,0,0,1,3.594-.674q4.455,0,6.49,2.733,1.76,2.4,1.76,6.951a9.337,9.337,0,0,1-2.047,6.2,10.219,10.219,0,0,1-5.978,3.257l-.886-1.535q7-1.335,7-8.411,0-4.019-1.884-6.028A5.128,5.128,0,0,0,237.452,147.988Zm-1.922.2a5.615,5.615,0,0,0-2.359.736,8.14,8.14,0,0,0-1.934,1.7,9.588,9.588,0,0,0-2.1,6.54,8.4,8.4,0,0,0,.749,3.881q.6,1.123,1.373,1.123a1.5,1.5,0,0,0,1.136-.474,4.645,4.645,0,0,0,.811-1.385A36.182,36.182,0,0,0,235.53,148.188Z" transform="translate(-201.385 -130.897)"/>
</svg>
