<svg xmlns="http://www.w3.org/2000/svg" width="150.879" height="74.902" viewBox="0 0 150.879 74.902">
  <path id="패스_396" data-name="패스 396" d="M-35.889-65.381q-2.295,34.277-10.6,52.588Q-51.318-2.2-60.01-2.2q-7.471,0-11.475-7.568-3.809-7.129-3.809-19.922a52.4,52.4,0,0,1,3.271-18.7,36.53,36.53,0,0,1,7.422-12.3A33.39,33.39,0,0,1-52.344-68.75a38.76,38.76,0,0,1,14.063-2.637q17.432,0,25.391,10.693,6.885,9.375,6.885,27.2,0,14.7-8.008,24.268Q-22.07.342-37.4,3.516L-40.869-2.49Q-13.477-7.715-13.477-35.4q0-15.723-7.373-23.584A20.063,20.063,0,0,0-35.889-65.381Zm-7.52.781a21.966,21.966,0,0,0-9.229,2.881,31.848,31.848,0,0,0-7.568,6.641q-8.2,9.375-8.2,25.586,0,9.619,2.93,15.186,2.344,4.395,5.371,4.395a5.859,5.859,0,0,0,4.443-1.855,18.173,18.173,0,0,0,3.174-5.42Q-44.873-35.156-43.408-64.6ZM45.7-65.381Q43.408-31.1,35.107-12.793,30.273-2.2,21.582-2.2q-7.471,0-11.475-7.568Q6.3-16.895,6.3-29.687a52.4,52.4,0,0,1,3.271-18.7,36.53,36.53,0,0,1,7.422-12.3A33.39,33.39,0,0,1,29.248-68.75a38.76,38.76,0,0,1,14.063-2.637q17.432,0,25.391,10.693,6.885,9.375,6.885,27.2,0,14.7-8.008,24.268Q59.521.342,44.189,3.516L40.723-2.49Q68.115-7.715,68.115-35.4q0-15.723-7.373-23.584A20.063,20.063,0,0,0,45.7-65.381Zm-7.52.781a21.966,21.966,0,0,0-9.229,2.881,31.848,31.848,0,0,0-7.568,6.641q-8.2,9.375-8.2,25.586,0,9.619,2.93,15.186,2.344,4.395,5.371,4.395a5.859,5.859,0,0,0,4.443-1.855,18.173,18.173,0,0,0,3.174-5.42Q36.719-35.156,38.184-64.6Z" transform="translate(75.293 71.387)"/>
</svg>
