<svg xmlns="http://www.w3.org/2000/svg" width="149.902" height="73.877" viewBox="0 0 149.902 73.877">
  <defs>
    <style>
      .cls-1 {
        fill: #fff;
      }
    </style>
  </defs>
  <path id="패스_400" data-name="패스 400" class="cls-1" d="M-36.914-66.016q-1.9,34.229-10.3,52.637-2.832,6.152-6.348,8.643A11.179,11.179,0,0,1-60.3-2.686q-7.031,0-10.986-7.471Q-75-17.187-75-29.492A50.23,50.23,0,0,1-71.631-47.9a37.367,37.367,0,0,1,7.52-12.3Q-54.053-70.9-38.184-70.9q31.494,0,31.494,37.207,0,15.039-8.4,24.561Q-22.949-.2-37.5,2.979l-2.783-4.785Q-12.6-7.861-12.6-34.619q0-17.334-7.812-25.2Q-26.465-65.918-36.914-66.016Zm-5.762.537A26.111,26.111,0,0,0-60.205-56.4Q-69.482-46-69.482-29.3q0,10.449,3.125,16.113,2.441,4.492,5.957,4.492a6.158,6.158,0,0,0,4.785-2.051A24.1,24.1,0,0,0-51.9-17.09Q-44.287-35.156-42.676-65.479Zm87.354-.537q-1.9,34.229-10.3,52.637-2.832,6.152-6.348,8.643a11.179,11.179,0,0,1-6.738,2.051q-7.031,0-10.986-7.471Q6.592-17.187,6.592-29.492A50.23,50.23,0,0,1,9.961-47.9a37.366,37.366,0,0,1,7.52-12.3Q27.539-70.9,43.408-70.9,74.9-70.9,74.9-33.691q0,15.039-8.4,24.561Q58.643-.2,44.092,2.979L41.309-1.807Q68.994-7.861,68.994-34.619q0-17.334-7.812-25.2Q55.127-65.918,44.678-66.016Zm-5.762.537A26.111,26.111,0,0,0,21.387-56.4Q12.109-46,12.109-29.3q0,10.449,3.125,16.113,2.441,4.492,5.957,4.492a6.158,6.158,0,0,0,4.785-2.051,24.1,24.1,0,0,0,3.711-6.348Q37.3-35.156,38.916-65.479Z" transform="translate(75 70.898)"/>
</svg>
