<svg xmlns="http://www.w3.org/2000/svg" width="465" height="487.667" viewBox="0 0 465 487.667">
  <defs>
    <style>
      .cls-1 {
        fill: #fff;
      }

      .cls-1, .cls-3, .cls-4 {
        stroke: #000;
      }

      .cls-1, .cls-4 {
        stroke-width: 3px;
      }

      .cls-2 {
        font-size: 80px;
        font-family: SpoqaHanSans-Bold, SpoqaHanSans;
        font-weight: 700;
      }

      .cls-3, .cls-6 {
        fill: none;
      }

      .cls-3 {
        stroke-width: 15px;
      }

      .cls-5 {
        stroke: none;
      }
    </style>
  </defs>
  <g id="그룹_116" data-name="그룹 116" transform="translate(-308 -716)">
    <g id="사각형_13" data-name="사각형 13" class="cls-1" transform="translate(308 716)">
      <rect class="cls-5" width="465" height="487.667"/>
      <rect class="cls-6" x="1.5" y="1.5" width="462" height="484.667"/>
    </g>
    <text id="가입완료_" data-name="가입완료!" class="cls-2" transform="translate(540 1134)"><tspan x="-162" y="0">가입완료!</tspan></text>
    <g id="그룹_111" data-name="그룹 111" transform="translate(267 -774.347)">
      <g id="타원_1" data-name="타원 1" class="cls-3" transform="translate(150.355 1549.316)">
        <circle class="cls-5" cx="122.328" cy="122.328" r="122.328"/>
        <circle class="cls-6" cx="122.328" cy="122.328" r="114.828"/>
      </g>
      <path id="패스_383" data-name="패스 383" class="cls-4" d="M6.2-64.99Q4.3-32.08-3.564-14.307q-3.223,7.373-7.52,10.352a14.467,14.467,0,0,1-8.3,2.344q-7.959,0-12.6-8.057-4.3-7.471-4.3-20.02,0-20.264,11.377-32.324a33.331,33.331,0,0,1,12.7-8.447A39.424,39.424,0,0,1,2.2-73.1q34.131,0,34.131,39.209Q36.328-3.271,3.711,4l-5.176-8.5Q13.867-7.52,20.215-16.211q5.127-7.08,5.127-19.092,0-15.723-6.4-23.437A16.968,16.968,0,0,0,6.2-64.99Zm-10.4.684q-8.154.879-14.893,9.521-7.373,9.473-7.373,25.488,0,9.033,2.49,13.672,1.9,3.613,4.688,3.613a5.061,5.061,0,0,0,3.857-1.611A15.51,15.51,0,0,0-12.6-18.9,129.828,129.828,0,0,0-6.787-41.211,161.755,161.755,0,0,0-4.2-64.307Z" transform="translate(230.691 1709.985)"/>
    </g>
    <path id="패스_384" data-name="패스 384" class="cls-4" d="M39.595,24.271,48.076,30.2A373.057,373.057,0,0,1,19.556,59.471a4.176,4.176,0,0,0-1.714,3.076q0,1.055,2.681,3.12A270.216,270.216,0,0,1,51.943,95.2l-8.13,6.768a221.6,221.6,0,0,0-33.53-33.4,7.206,7.206,0,0,1-2.988-5.845,7.665,7.665,0,0,1,2.417-5.581Q20.874,45.979,26.367,39.959,32.959,32.752,39.595,24.271Z" transform="translate(555 837)"/>
  </g>
</svg>
